# xmcd
#
# Track frame offsets:
#	150
#	14570
#	30234
#	43226
#	56316
#	68987
#	85531
#	103501
#	114977
#	129280
#	142154
#	159589
#	174293
#	187739
#	201152
#	217761
#
# Disc length: 3101 seconds
#
# Revision: 2
# Processed by: cddbd v1.5.1PL0 Copyright (c) Steve Scherf et al.
# Submitted via: audiograbber 1.83.01
#
DISCID=ca0c1b10
DTITLE=VARIADOS - BAILÃO SERTANEJO 2005.
DYEAR=2005
DGENRE=SERTANEJO
TTITLE0=MACHUCA EU - DANIEL
TTITLE1=O BICHO VAI PEGAR - EDSON and HUDSON
TTITLE2=DE BEM COM A VIDA - RIO NEGRO and SOLIMÕES
TTITLE3=NÃO ADIANTOU IR PESCAR - GUILHERME and SANTIAGO
TTITLE4=TIRANDO O ATRASO - ALESSANDRO and GABRIEL
TTITLE5=BREGA DEMAIS - RICKI and RENNER
TTITLE6=SISTEMA BRUTO - CHITÃOZINHO and XORORÓ
TTITLE7=GARANHÃO DA MADRUGADA - TEODORO and SAMPAIO
TTITLE8=DIRETO NO CORAÇÃO - DANIEL
TTITLE9=SAPATEIA GALERA - EDSON and HUDSON
TTITLE10=VAI COMEÇAR DE NOVO - RIO NEGRO and SOLIMÕES
TTITLE11=O SOM DO POVO - GUILHERME and SANTIAGO
TTITLE12=SOLIDÃO ME DEVORA - ALESSANDRO and GABRIEL
TTITLE13=PINGA DE GOELA ABAIXO - RICK and RENNER
TTITLE14=TRADIÇÃO GAÚCHA - CHITÃOZINHO and XORORÓ
TTITLE15=MULHER CHORONA - TEODORO and SAMPAIO
EXTD=CORREÇÃO NA ESCRITA
EXTT0=
EXTT1=
EXTT2=
EXTT3=
EXTT4=
EXTT5=
EXTT6=
EXTT7=
EXTT8=
EXTT9=
EXTT10=
EXTT11=
EXTT12=
EXTT13=
EXTT14=
EXTT15=
PLAYORDER=
